<?xml version="1.0" encoding="UTF-8"?><svg id="uuid-b3d70f2c-c1b2-49bf-86b3-9941e7dd499d" xmlns="http://www.w3.org/2000/svg" viewBox="0 0 435.8 470.24"><g id="uuid-864feb7b-b76d-4f16-a4bb-19b6f768b951"><path d="M416.86,428.43H121.76v41.81h314.04v-41.81h-18.94ZM416.86,453.25H140.7v-7.84h276.16v7.84Z"/><path d="M231.42,34.65l-71,211.89,140.18-1.1L231.42,34.65ZM231.24,94.24l44.12,134.42-89.39.7,45.27-135.12Z"/><path d="M129.43,407.05c.17-.55.78-.96,1.41-.96h182.13c14.06,0,27.39-6.3,36.55-17.28,11.95-14.32,15.64-34.6,9.63-52.91-8.06-24.56-29.23-38.64-58.07-38.64h-.38l15.13-3.8,8.42-2.11,18.32-4.6-5.21-16.41-9.69-30.51-5.19-16.33-.2.05L253.83,15C250.94,6.2,241.77.03,231.54,0h-.03s-.03,0-.03,0h-.01c-10.37,0-19.34,5.98-22.33,14.89l-90.01,268.64c-4.42,13.19-1.7,27.09,7.47,38.15,9.17,11.05,23.23,17.39,38.59,17.39h135.89c8.25,0,11.12,1.86,13.35,8.64,2.07,6.3.44,12.85-2.23,16.06-.18.22-.35.39-.48.52h-180.87c-21.36,0-40.28,12.78-46.2,31.15l-11.91,32.1c-.2.55-.75.9-1.39.9H0v41.81h71.34c20.75,0,39.08-11.86,45.63-29.51l12.06-32.52c.14-.38.27-.77.39-1.15ZM111.15,402.6c-.02.07-.04.14-.07.21l-12.08,32.56c-3.97,10.7-15.09,17.89-27.66,17.89H18.94v-7.84h52.4c8.8,0,16.59-5.03,19.37-12.52l12.04-32.46c3.49-11.29,15.02-19.17,28.09-19.17h182.13c5.33,0,10.44-2.6,14.38-7.33,6.72-8.06,8.78-20.24,5.24-31.03-4.6-14.02-14.91-20.83-31.52-20.83h-135.89c-9.31,0-17.84-3.84-23.39-10.54-5.56-6.7-7.21-15.13-4.53-23.12L227.28,19.78c.55-1.66,2.26-2.79,4.19-2.79h.01c1.93,0,3.63,1.15,4.18,2.81l73.74,224.69h.04s9.69,30.5,9.69,30.5l-8.42,2.11-7.57-23.84-145.35,1.14-12.15,36.27c-1.88,5.6-.72,11.5,3.17,16.19,3.89,4.69,9.86,7.38,16.38,7.38h135.89c20.42,0,34.22,9.15,39.9,26.45,4.29,13.08,1.69,27.97-6.62,37.94-5.63,6.75-13.23,10.47-21.38,10.47h-182.13c-9.18,0-17.28,5.55-19.69,13.5ZM297.42,297.26h-132.24c-.53,0-.86-.15-1.18-.53-.32-.38-.38-.71-.23-1.17l8.14-24.28,116.97-.92,3.62,11.39,4.92,15.5Z"/></g></svg>