<?xml version="1.0" encoding="UTF-8"?><svg id="uuid-414389be-b8b2-4b8d-874d-a112a7082f54" xmlns="http://www.w3.org/2000/svg" viewBox="0 0 689.54 689.54"><g id="uuid-4c1af5bd-4d76-4fae-8571-21957cfffb00"><path d="M531.11,489.39H236.01v41.81h314.04v-41.81h-18.94ZM531.11,514.21H254.95v-7.84h276.16v7.84Z"/><path d="M345.68,95.62l-71,211.89,140.18-1.1-69.18-210.79ZM345.49,155.2l44.12,134.42-89.39.7,45.27-135.12Z"/><path d="M243.68,468.01c.17-.55.78-.96,1.41-.96h182.13c14.06,0,27.39-6.3,36.55-17.28,11.95-14.32,15.64-34.6,9.63-52.91-8.06-24.56-29.23-38.64-58.07-38.64h-.38l15.13-3.8,8.42-2.11,18.32-4.6-5.21-16.41-9.69-30.51-5.19-16.33-.2.05-68.45-208.54c-2.89-8.81-12.06-14.97-22.29-15h-.03s-.03,0-.03,0h-.01c-10.37,0-19.34,5.98-22.33,14.89l-90.01,268.64c-4.42,13.19-1.7,27.09,7.47,38.15,9.17,11.05,23.23,17.39,38.59,17.39h135.89c8.25,0,11.12,1.86,13.35,8.64,2.07,6.3.44,12.85-2.23,16.06-.18.22-.35.39-.48.52h-180.87c-21.36,0-40.28,12.78-46.2,31.15l-11.91,32.1c-.2.55-.75.9-1.39.9h-71.34v41.81h71.34c20.75,0,39.08-11.86,45.63-29.51l12.06-32.52c.14-.38.27-.77.39-1.15ZM225.4,463.56c-.02.07-.04.14-.07.21l-12.08,32.56c-3.97,10.7-15.09,17.89-27.66,17.89h-52.4v-7.84h52.4c8.8,0,16.59-5.03,19.37-12.52l12.04-32.46c3.49-11.29,15.02-19.17,28.09-19.17h182.13c5.33,0,10.44-2.6,14.38-7.33,6.72-8.06,8.78-20.24,5.24-31.03-4.6-14.02-14.91-20.83-31.52-20.83h-135.89c-9.31,0-17.84-3.84-23.39-10.54-5.56-6.7-7.21-15.13-4.53-23.12l90.01-268.64c.55-1.66,2.26-2.79,4.19-2.79h.01c1.93,0,3.63,1.15,4.18,2.81l73.74,224.69h.04s9.69,30.5,9.69,30.5l-8.42,2.11-7.57-23.84-145.35,1.14-12.15,36.27c-1.88,5.6-.72,11.5,3.17,16.19,3.89,4.69,9.86,7.38,16.38,7.38h135.89c20.42,0,34.22,9.15,39.9,26.45,4.29,13.08,1.69,27.97-6.62,37.94-5.63,6.75-13.23,10.47-21.38,10.47h-182.13c-9.18,0-17.28,5.55-19.69,13.5ZM411.67,358.22h-132.24c-.53,0-.86-.15-1.18-.53-.32-.38-.38-.71-.23-1.17l8.14-24.28,116.97-.92,3.62,11.39,4.92,15.5Z"/><path d="M344.77,18c87.28,0,169.34,33.99,231.06,95.71s95.71,143.78,95.71,231.06-33.99,169.34-95.71,231.06-143.78,95.71-231.06,95.71-169.34-33.99-231.06-95.71S18,432.05,18,344.77,51.99,175.43,113.71,113.71,257.49,18,344.77,18M344.77,662.54c175.22,0,317.77-142.55,317.77-317.77S519.99,27,344.77,27,27,169.55,27,344.77s142.55,317.77,317.77,317.77M344.77,0c-92.09,0-178.67,35.86-243.79,100.98C35.86,166.1,0,252.68,0,344.77s35.86,178.67,100.98,243.79c65.12,65.12,151.7,100.98,243.79,100.98s178.67-35.86,243.79-100.98c65.12-65.12,100.98-151.7,100.98-243.79s-35.86-178.67-100.98-243.79C523.44,35.86,436.86,0,344.77,0h0ZM344.77,644.54c-165.29,0-299.77-134.48-299.77-299.77S179.48,45,344.77,45s299.77,134.48,299.77,299.77-134.48,299.77-299.77,299.77h0Z"/></g></svg>